<svg width="440" height="82" viewBox="0 0 440 82" fill="none" xmlns="http://www.w3.org/2000/svg">
<path d="M188.407 72.6879H179.635L177.467 76.9753H174.83L183.922 59.6041H186.041L192.423 76.9753H189.91L188.407 72.6879ZM187.692 70.6675L184.809 62.4377L180.645 70.6675H187.692Z" fill="#7A7A79"/>
<path d="M203.212 64.6553C204.559 64.6553 205.578 65.0084 206.268 65.7148C206.974 66.4211 207.327 67.4642 207.327 68.8441C207.327 69.1726 207.319 69.419 207.303 69.5833L206.736 76.9753H204.247L204.814 69.7065C204.83 69.5915 204.839 69.419 204.839 69.189C204.839 67.5135 204.034 66.6758 202.424 66.6758C201.405 66.6758 200.592 66.9796 199.985 67.5874C199.393 68.1952 199.056 69.0412 198.974 70.1254L198.432 76.9753H195.944L196.905 64.951H199.344L199.196 66.6758C199.607 66.0351 200.157 65.5423 200.847 65.1974C201.553 64.836 202.342 64.6553 203.212 64.6553Z" fill="#7A7A79"/>
<path d="M223.631 64.9756L215.179 81.4105H212.666L215.105 76.6549L210.991 64.9756H213.528L216.584 74.1417L221.093 64.9756H223.631Z" fill="#7A7A79"/>
<path d="M229.908 72.5154L229.883 72.9343C229.883 74.462 230.639 75.2258 232.15 75.2258C232.495 75.2258 232.865 75.2012 233.259 75.1519L232.988 77.0246C232.594 77.1067 232.183 77.1478 231.756 77.1478C230.343 77.1478 229.259 76.811 228.503 76.1375C227.764 75.4476 227.395 74.462 227.395 73.1807C227.395 72.9179 227.403 72.7208 227.419 72.5894L227.863 66.8729H225.547L225.694 64.951H228.011L228.306 61.3289H230.795L230.499 64.951H233.801L233.653 66.8729H230.351L229.908 72.5154Z" fill="#7A7A79"/>
<path d="M243.83 64.6553C245.177 64.6553 246.195 65.0085 246.885 65.7148C247.592 66.4212 247.945 67.4643 247.945 68.8441C247.945 69.1726 247.937 69.419 247.92 69.5833L247.353 76.9753H244.865L245.432 69.7065C245.448 69.5915 245.456 69.419 245.456 69.1891C245.456 67.5135 244.651 66.6758 243.041 66.6758C242.023 66.6758 241.21 66.9797 240.602 67.5875C240.011 68.1952 239.674 69.0412 239.592 70.1254L239.05 76.9753H236.561L237.941 59.6041H240.43L239.863 66.6019C240.274 65.9776 240.824 65.5013 241.514 65.1727C242.204 64.8278 242.976 64.6553 243.83 64.6553Z" fill="#7A7A79"/>
<path d="M253.259 64.951H255.748L254.787 76.9753H252.298L253.259 64.951ZM256.364 59.5794L256.142 62.1666H253.284L253.481 59.5794H256.364Z" fill="#7A7A79"/>
<path d="M267.074 64.6553C268.421 64.6553 269.44 65.0084 270.13 65.7148C270.836 66.4211 271.189 67.4642 271.189 68.8441C271.189 69.1726 271.181 69.419 271.165 69.5833L270.598 76.9753H268.109L268.676 69.7065C268.692 69.5915 268.701 69.419 268.701 69.189C268.701 67.5135 267.896 66.6758 266.286 66.6758C265.267 66.6758 264.454 66.9796 263.846 67.5874C263.255 68.1952 262.918 69.0412 262.836 70.1254L262.294 76.9753H259.805L260.766 64.951H263.206L263.058 66.6758C263.469 66.0351 264.019 65.5423 264.709 65.1974C265.415 64.836 266.204 64.6553 267.074 64.6553Z" fill="#7A7A79"/>
<path d="M287.665 64.951L286.803 75.9404C286.655 77.8623 286.072 79.2832 285.053 80.2031C284.051 81.123 282.622 81.583 280.766 81.583C278.647 81.583 276.824 81.0573 275.296 80.006L276.183 78.2073C276.988 78.7165 277.744 79.0779 278.45 79.2914C279.173 79.5214 279.961 79.6364 280.815 79.6364C283 79.6364 284.175 78.4783 284.339 76.1622L284.462 74.6838C284.068 75.2915 283.526 75.7679 282.836 76.1129C282.146 76.4414 281.382 76.6057 280.544 76.6057C279.509 76.6057 278.598 76.3839 277.809 75.9404C277.021 75.4804 276.413 74.8316 275.986 73.9938C275.559 73.1561 275.345 72.1869 275.345 71.0863C275.345 69.8379 275.583 68.7291 276.06 67.7599C276.536 66.7743 277.201 66.0105 278.056 65.4684C278.926 64.9263 279.928 64.6553 281.062 64.6553C281.982 64.6553 282.787 64.8524 283.476 65.2466C284.166 65.6244 284.692 66.1583 285.053 66.8482L285.201 64.951H287.665ZM281.234 74.6345C282.335 74.6345 283.197 74.2484 283.821 73.4764C284.462 72.7043 284.782 71.6448 284.782 70.2978C284.782 69.1151 284.487 68.2116 283.895 67.5874C283.32 66.9632 282.499 66.6511 281.431 66.6511C280.314 66.6511 279.435 67.0454 278.795 67.8338C278.171 68.6059 277.859 69.6736 277.859 71.037C277.859 72.1869 278.146 73.0739 278.721 73.6982C279.312 74.3224 280.15 74.6345 281.234 74.6345Z" fill="#7A7A79"/>
<path d="M304.171 64.6553C307.144 64.6553 308.631 66.0598 308.631 68.8687C308.631 69.1972 308.623 69.4436 308.606 69.6079L308.039 76.9753H305.649L305.797 75.078C305.452 75.7515 304.968 76.2689 304.343 76.6303C303.736 76.9753 303.038 77.1478 302.249 77.1478C301.05 77.1478 300.056 76.8274 299.268 76.1868C298.496 75.5297 298.109 74.692 298.109 73.6735C298.109 72.77 298.348 72.0473 298.824 71.5052C299.3 70.9631 300.056 70.5689 301.091 70.3225C302.142 70.0761 303.547 69.9529 305.304 69.9529H306.191L306.241 69.3369C306.306 68.4006 306.142 67.7188 305.748 67.2918C305.37 66.8482 304.729 66.6265 303.826 66.6265C303.185 66.6265 302.52 66.7332 301.83 66.9468C301.14 67.1603 300.467 67.4724 299.81 67.8831L299.169 66.1337C299.793 65.6902 300.565 65.337 301.485 65.0742C302.405 64.7949 303.3 64.6553 304.171 64.6553ZM302.84 75.2998C303.695 75.2998 304.417 74.9959 305.009 74.3881C305.616 73.7803 305.953 73 306.019 72.0473L306.068 71.3574H305.378C304.097 71.3574 303.111 71.4313 302.422 71.5791C301.748 71.7105 301.272 71.9241 300.992 72.2198C300.73 72.5154 300.598 72.9179 300.598 73.4271C300.598 74.002 300.795 74.462 301.189 74.807C301.6 75.1355 302.15 75.2998 302.84 75.2998Z" fill="#7A7A79"/>
<path d="M317.394 77.1478C315.456 77.1478 313.772 76.6385 312.343 75.6201L313.23 73.8214C314.511 74.7741 315.916 75.2505 317.443 75.2505C318.298 75.2505 318.938 75.1191 319.365 74.8562C319.809 74.5934 320.031 74.2156 320.031 73.7228C320.031 73.2464 319.809 72.885 319.365 72.6386C318.922 72.3758 318.232 72.113 317.296 71.8502C316.441 71.6038 315.752 71.3656 315.226 71.1356C314.7 70.9056 314.248 70.5689 313.871 70.1254C313.493 69.6654 313.304 69.074 313.304 68.3513C313.304 67.2343 313.747 66.339 314.634 65.6655C315.538 64.992 316.729 64.6553 318.207 64.6553C319.078 64.6553 319.916 64.7949 320.721 65.0742C321.525 65.3534 322.191 65.7312 322.716 66.2076L321.829 67.957C320.679 67.0207 319.472 66.5526 318.207 66.5526C317.386 66.5526 316.754 66.6922 316.31 66.9714C315.867 67.2507 315.645 67.6614 315.645 68.2034C315.645 68.6798 315.858 69.0412 316.285 69.2876C316.729 69.534 317.419 69.7886 318.355 70.0514C319.209 70.2978 319.899 70.536 320.425 70.766C320.951 70.996 321.402 71.3409 321.78 71.8009C322.158 72.2444 322.347 72.8358 322.347 73.575C322.347 74.692 321.895 75.5708 320.992 76.2114C320.105 76.8356 318.905 77.1478 317.394 77.1478Z" fill="#7A7A79"/>
<path d="M338.821 64.6553C341.794 64.6553 343.281 66.0598 343.281 68.8687C343.281 69.1972 343.273 69.4436 343.256 69.6079L342.689 76.9753H340.299L340.447 75.078C340.102 75.7515 339.618 76.2689 338.993 76.6303C338.386 76.9753 337.688 77.1478 336.899 77.1478C335.7 77.1478 334.706 76.8274 333.918 76.1868C333.146 75.5297 332.76 74.692 332.76 73.6735C332.76 72.77 332.998 72.0473 333.474 71.5052C333.95 70.9631 334.706 70.5689 335.741 70.3225C336.792 70.0761 338.197 69.9529 339.954 69.9529H340.841L340.891 69.3369C340.956 68.4006 340.792 67.7188 340.398 67.2918C340.02 66.8482 339.379 66.6265 338.476 66.6265C337.835 66.6265 337.17 66.7332 336.48 66.9468C335.79 67.1603 335.117 67.4724 334.46 67.8831L333.819 66.1337C334.443 65.6902 335.215 65.337 336.135 65.0742C337.055 64.7949 337.95 64.6553 338.821 64.6553ZM337.49 75.2998C338.345 75.2998 339.067 74.9959 339.659 74.3881C340.267 73.7803 340.603 73 340.669 72.0473L340.718 71.3574H340.028C338.747 71.3574 337.761 71.4313 337.072 71.5791C336.398 71.7105 335.922 71.9241 335.642 72.2198C335.38 72.5154 335.248 72.9179 335.248 73.4271C335.248 74.002 335.445 74.462 335.84 74.807C336.25 75.1355 336.8 75.2998 337.49 75.2998Z" fill="#7A7A79"/>
<path d="M358.541 77.1478C356.603 77.1478 354.919 76.6385 353.49 75.6201L354.377 73.8214C355.658 74.7741 357.063 75.2505 358.59 75.2505C359.444 75.2505 360.085 75.1191 360.512 74.8562C360.956 74.5934 361.177 74.2156 361.177 73.7228C361.177 73.2464 360.956 72.885 360.512 72.6386C360.069 72.3758 359.379 72.113 358.442 71.8502C357.588 71.6038 356.898 71.3656 356.373 71.1356C355.847 70.9056 355.395 70.5689 355.017 70.1254C354.64 69.6654 354.451 69.074 354.451 68.3513C354.451 67.2343 354.894 66.339 355.781 65.6655C356.685 64.992 357.876 64.6553 359.354 64.6553C360.225 64.6553 361.063 64.7949 361.867 65.0742C362.672 65.3534 363.338 65.7312 363.863 66.2076L362.976 67.957C361.826 67.0207 360.619 66.5526 359.354 66.5526C358.533 66.5526 357.9 66.6922 357.457 66.9714C357.013 67.2507 356.792 67.6614 356.792 68.2034C356.792 68.6798 357.005 69.0412 357.432 69.2876C357.876 69.534 358.566 69.7886 359.502 70.0514C360.356 70.2978 361.046 70.536 361.572 70.766C362.097 70.996 362.549 71.3409 362.927 71.8009C363.305 72.2444 363.494 72.8358 363.494 73.575C363.494 74.692 363.042 75.5708 362.138 76.2114C361.251 76.8356 360.052 77.1478 358.541 77.1478Z" fill="#7A7A79"/>
<path d="M373.323 64.6553C374.9 64.6553 376.14 65.1234 377.044 66.0598C377.947 66.9961 378.399 68.3595 378.399 70.15C378.399 70.5278 378.374 70.9385 378.325 71.382H369.8C369.816 72.5976 370.128 73.5421 370.736 74.2156C371.344 74.8727 372.223 75.2012 373.372 75.2012C374.769 75.2012 376.033 74.7577 377.167 73.8706L377.808 75.6201C377.298 76.08 376.625 76.4496 375.787 76.7289C374.949 77.0081 374.095 77.1478 373.225 77.1478C372.042 77.1478 371.007 76.9096 370.12 76.4332C369.233 75.9568 368.543 75.2751 368.05 74.3881C367.574 73.501 367.336 72.4744 367.336 71.3081C367.336 70.0104 367.582 68.8605 368.075 67.8585C368.584 66.84 369.29 66.0515 370.194 65.493C371.114 64.9345 372.157 64.6553 373.323 64.6553ZM373.422 66.4786C372.436 66.4786 371.639 66.7743 371.032 67.3657C370.44 67.957 370.062 68.8194 369.898 69.9529H376.255C376.288 68.803 376.05 67.9406 375.541 67.3657C375.031 66.7743 374.325 66.4786 373.422 66.4786Z" fill="#7A7A79"/>
<path d="M390.27 64.6553V66.7497L388.644 66.9222C387.511 67.0371 386.665 67.3657 386.106 67.9078C385.564 68.4498 385.252 69.2465 385.17 70.2978L384.628 76.9753H382.139L383.1 64.9756H385.49L385.342 66.8236C385.769 66.1665 386.328 65.6737 387.018 65.3452C387.708 65.0002 388.546 64.7867 389.531 64.7046L390.27 64.6553Z" fill="#7A7A79"/>
<path d="M405.351 64.9756L399.191 76.9753H396.949L392.711 64.9756H395.248L398.304 74.1417L402.813 64.9756H405.351Z" fill="#7A7A79"/>
<path d="M408.703 64.951H411.191L410.23 76.9753H407.742L408.703 64.951ZM411.807 59.5794L411.586 62.1666H408.727L408.924 59.5794H411.807Z" fill="#7A7A79"/>
<path d="M420.818 77.1478C419.652 77.1478 418.633 76.9096 417.763 76.4332C416.892 75.9568 416.218 75.2833 415.742 74.4127C415.266 73.5257 415.027 72.499 415.027 71.3327C415.027 69.9857 415.282 68.8112 415.791 67.8092C416.301 66.7907 417.032 66.0105 417.984 65.4684C418.937 64.9263 420.054 64.6553 421.335 64.6553C422.239 64.6553 423.068 64.7949 423.824 65.0742C424.58 65.337 425.237 65.7148 425.795 66.2076L424.908 67.9817C423.758 67.0946 422.592 66.6511 421.409 66.6511C420.194 66.6511 419.257 67.0618 418.6 67.8831C417.943 68.7044 417.615 69.8543 417.615 71.3327C417.615 72.5483 417.91 73.4928 418.502 74.1663C419.11 74.8234 419.955 75.1519 421.04 75.1519C421.664 75.1519 422.247 75.0451 422.789 74.8316C423.331 74.618 423.881 74.2813 424.44 73.8214L425.056 75.6201C424.547 76.0964 423.914 76.4743 423.159 76.7535C422.419 77.0163 421.639 77.1478 420.818 77.1478Z" fill="#7A7A79"/>
<path d="M434.442 64.6553C436.019 64.6553 437.259 65.1234 438.163 66.0598C439.066 66.9961 439.518 68.3595 439.518 70.15C439.518 70.5278 439.493 70.9385 439.444 71.382H430.918C430.935 72.5976 431.247 73.5421 431.855 74.2156C432.462 74.8727 433.341 75.2012 434.491 75.2012C435.887 75.2012 437.152 74.7577 438.286 73.8706L438.926 75.6201C438.417 76.08 437.744 76.4496 436.906 76.7289C436.068 77.0081 435.214 77.1478 434.343 77.1478C433.161 77.1478 432.126 76.9096 431.239 76.4332C430.352 75.9568 429.662 75.2751 429.169 74.3881C428.693 73.501 428.454 72.4744 428.454 71.3081C428.454 70.0104 428.701 68.8605 429.194 67.8585C429.703 66.84 430.409 66.0515 431.313 65.493C432.233 64.9345 433.276 64.6553 434.442 64.6553ZM434.54 66.4786C433.555 66.4786 432.758 66.7743 432.15 67.3657C431.559 67.957 431.181 68.8194 431.017 69.9529H437.374C437.407 68.803 437.169 67.9406 436.659 67.3657C436.15 66.7743 435.444 66.4786 434.54 66.4786Z" fill="#7A7A79"/>
<path d="M6.46982 38.338C9.02006 39.3359 11.7366 39.7795 14.6195 39.7795C17.6687 39.7795 20.2744 39.3359 22.3811 38.3935C24.4878 37.5064 26.0401 36.2313 27.0381 34.679C28.036 33.1267 28.5904 31.408 28.5904 29.5231C28.5904 27.25 27.9805 25.4205 26.7609 24.0899C25.5412 22.7594 24.0997 21.706 22.4365 21.0407C20.7179 20.3755 18.4449 19.7102 15.6174 18.9895C13.0672 18.3796 11.0159 17.7698 9.57446 17.2154C8.07758 16.661 6.85789 15.8848 5.85997 14.8315C4.86205 13.8335 4.36309 12.4475 4.36309 10.6735C4.36309 8.40041 5.25014 6.51545 7.1351 5.07401C8.96462 3.63257 11.6812 2.91185 15.2848 2.91185C17.0589 2.91185 18.8884 3.18905 20.7733 3.74345C22.6583 4.29785 24.3769 5.12945 25.9293 6.18281L26.9826 3.90977C25.4303 2.85641 23.6562 2.02481 21.6049 1.35953C19.4982 0.749692 17.3915 0.417053 15.2848 0.417053C12.1801 0.417053 9.6299 0.916013 7.57862 1.80305C5.52734 2.74553 4.03046 4.02065 3.03254 5.57297C2.03462 7.12529 1.53566 8.84393 1.53566 10.7289C1.53566 13.0574 2.09006 14.9423 3.30974 16.3283C4.52942 17.7143 5.97086 18.7123 7.6895 19.3775C9.40814 20.0428 11.6812 20.7635 14.5641 21.4288C17.0589 22.0387 19.0547 22.5931 20.5516 23.1475C21.993 23.7019 23.2681 24.5335 24.2661 25.5314C25.264 26.5847 25.7629 27.9707 25.7629 29.6894C25.7629 31.9624 24.8205 33.7919 22.9355 35.1779C21.0505 36.6194 18.2231 37.2847 14.5641 37.2847C12.0138 37.2847 9.57446 36.8411 7.24598 35.9541C4.9175 35.0671 3.08798 33.8474 1.75742 32.4059L0.4823 34.5127C1.92374 36.065 3.91958 37.3401 6.46982 38.338Z" fill="#00F900"/>
<path d="M63.3166 18.5459H38.2023V21.0407H63.3166V18.5459ZM63.3166 0.694244H38.2023V3.24448H63.3166V0.694244ZM38.2023 36.952V39.5022H63.3166V36.952H38.2023Z" fill="#00F900"/>
<path d="M95.8001 25.9194C98.6829 25.0878 100.956 23.6464 102.508 21.5397C104.061 19.433 104.892 16.8827 104.892 13.7781C104.892 9.73097 103.506 6.51545 100.734 4.18697C97.9622 1.85849 94.1369 0.694244 89.2581 0.694244H75.3427V3.24448H89.2581C93.3607 3.24448 96.5208 4.18697 98.7384 6.01649C100.901 7.84601 102.009 10.4517 102.009 13.7781C102.009 17.1599 100.901 19.7656 98.7384 21.5951C96.5208 23.4246 93.3607 24.3117 89.2581 24.3117H75.3427V39.5022H78.1702V26.8065H89.2581C90.3669 26.8065 91.6421 26.751 93.0281 26.5293L102.287 39.5022H105.502L95.8001 25.9194Z" fill="#00F900"/>
<path d="M146.289 0.694244H143.351L127.662 35.8432L111.972 0.694244H108.867L126.165 39.5022H128.992L146.289 0.694244Z" fill="#00F900"/>
<path d="M152.547 0.694244V39.5022H155.375V0.694244H152.547Z" fill="#00F900"/>
<path d="M174.996 37.2292C178.045 38.9479 181.483 39.7795 185.308 39.7795C188.08 39.7795 190.63 39.3359 193.014 38.3935C195.398 37.5064 197.449 36.1204 199.113 34.3463L197.338 32.5168C194.178 35.6215 190.187 37.1738 185.419 37.1738C182.148 37.1738 179.21 36.4531 176.548 34.9562C173.887 33.5147 171.781 31.4635 170.284 28.8578C168.731 26.2521 168.011 23.3138 168.011 20.0983C168.011 16.8827 168.731 13.9999 170.284 11.3942C171.781 8.78849 173.887 6.73721 176.548 5.24033C179.21 3.79889 182.148 3.02273 185.419 3.02273C190.242 3.02273 194.234 4.57505 197.338 7.62425L199.113 5.79473C197.449 4.02065 195.398 2.69009 193.07 1.80305C190.686 0.916013 188.08 0.417053 185.308 0.417053C181.483 0.417053 178.045 1.30409 174.996 2.96729C171.947 4.68593 169.563 7.01441 167.789 10.0082C166.015 13.0019 165.183 16.3838 165.183 20.0983C165.183 23.8682 166.015 27.1946 167.789 30.1883C169.563 33.1821 171.947 35.566 174.996 37.2292Z" fill="#00F900"/>
<path d="M233.751 18.5459H208.637V21.0407H233.751V18.5459ZM233.751 0.694244H208.637V3.24448H233.751V0.694244ZM208.637 36.952V39.5022H233.751V36.952H208.637Z" fill="#00F900"/>
<path d="M287.791 20.2646V33.6256C284.852 36.0095 281.193 37.1738 276.758 37.1738C273.432 37.1738 270.438 36.4531 267.777 34.9562C265.116 33.4593 263.009 31.408 261.457 28.8023C259.904 26.1967 259.184 23.3138 259.184 20.0983C259.184 16.8827 259.904 13.9999 261.457 11.3942C262.953 8.78849 265.06 6.73721 267.721 5.24033C270.382 3.79889 273.432 3.02273 276.758 3.02273C279.197 3.02273 281.415 3.41081 283.411 4.13153C285.407 4.85225 287.236 6.01649 288.899 7.62425L290.673 5.73929C288.955 4.02065 286.904 2.69009 284.52 1.80305C282.136 0.916013 279.53 0.417053 276.703 0.417053C272.822 0.417053 269.329 1.30409 266.224 2.96729C263.12 4.68593 260.736 7.01441 258.962 10.0082C257.188 13.0019 256.356 16.3838 256.356 20.0983C256.356 23.8682 257.188 27.1946 258.962 30.1883C260.736 33.1821 263.12 35.566 266.224 37.2292C269.329 38.9479 272.766 39.7795 276.647 39.7795C279.308 39.7795 281.858 39.3914 284.298 38.5043C286.737 37.6727 288.788 36.4531 290.507 34.7899V20.2646H287.791Z" fill="#00F900"/>
<path d="M328.064 18.5459H302.95V21.0407H328.064V18.5459ZM328.064 0.694244H302.95V3.24448H328.064V0.694244ZM302.95 36.952V39.5022H328.064V36.952H302.95Z" fill="#00F900"/>
<path d="M365.205 18.5459H340.09V21.0407H365.205V18.5459ZM365.205 0.694244H340.09V3.24448H365.205V0.694244ZM340.09 36.952V39.5022H365.205V36.952H340.09Z" fill="#00F900"/>
<path d="M388.762 20.3754L405.45 39.5022H408.887L390.647 18.3242L407.723 0.694244H404.286L380.058 25.6422V0.694244H377.231V39.5022H380.058V29.3013L388.762 20.3754Z" fill="#00F900"/>
<path d="M417.397 38.338C419.947 39.3359 422.664 39.7795 425.547 39.7795C428.596 39.7795 431.202 39.3359 433.308 38.3935C435.415 37.5064 436.967 36.2313 437.965 34.679C438.963 33.1267 439.518 31.408 439.518 29.5231C439.518 27.25 438.908 25.4205 437.688 24.0899C436.468 22.7594 435.027 21.706 433.364 21.0407C431.645 20.3755 429.372 19.7102 426.545 18.9895C423.994 18.3796 421.943 17.7698 420.502 17.2154C419.005 16.661 417.785 15.8848 416.787 14.8315C415.789 13.8335 415.29 12.4475 415.29 10.6735C415.29 8.40041 416.177 6.51545 418.062 5.07401C419.892 3.63257 422.608 2.91185 426.212 2.91185C427.986 2.91185 429.816 3.18905 431.701 3.74345C433.586 4.29785 435.304 5.12945 436.857 6.18281L437.91 3.90977C436.358 2.85641 434.584 2.02481 432.532 1.35953C430.426 0.749692 428.319 0.417053 426.212 0.417053C423.107 0.417053 420.557 0.916013 418.506 1.80305C416.455 2.74553 414.958 4.02065 413.96 5.57297C412.962 7.12529 412.463 8.84393 412.463 10.7289C412.463 13.0574 413.017 14.9423 414.237 16.3283C415.457 17.7143 416.898 18.7123 418.617 19.3775C420.335 20.0428 422.609 20.7635 425.491 21.4288C427.986 22.0387 429.982 22.5931 431.479 23.1475C432.92 23.7019 434.195 24.5335 435.193 25.5314C436.191 26.5847 436.69 27.9707 436.69 29.6894C436.69 31.9624 435.748 33.7919 433.863 35.1779C431.978 36.6194 429.15 37.2847 425.491 37.2847C422.941 37.2847 420.502 36.8411 418.173 35.9541C415.845 35.0671 414.015 33.8474 412.685 32.4059L411.41 34.5127C412.851 36.065 414.847 37.3401 417.397 38.338Z" fill="#00F900"/>
</svg>
